<?xml version="1.0" encoding="utf-8"?>
<!-- Generator: Adobe Illustrator 27.3.1, SVG Export Plug-In . SVG Version: 6.00 Build 0)  -->
<svg version="1.1" id="Layer_1" xmlns="http://www.w3.org/2000/svg" xmlns:xlink="http://www.w3.org/1999/xlink" x="0px" y="0px"
	 viewBox="0 0 186.5 148" enable-background="new 0 0 186.5 148" xml:space="preserve">
<g>
	<path d="M129.1,93.6c1.8,1.3,2.7,3.3,2.6,5.6c-0.3,4.3-4.6,7.7-8.8,6.1c-0.6-0.2-1.6,0-2.1,0.5c-3.6,3.2-7.2,6.5-10.8,9.8
		c-2.3,2.1-4.6,4.2-6.9,6.2c-0.6,0.5-1.3,0.8-1.8,1.4c-0.7,0.8-1.7,1.4-1.2,3c0.6,1.9-0.9,5.6-3,6.8c-1.8,1-5.7,1.1-7.7-0.4
		c-2.2-1.6-2.9-3.8-2.5-6.3c0.2-1.5-0.4-2.4-1.4-3.3c-1.8-1.6-3.6-3.1-5.4-4.7c-2.8-2.5-5.6-5-8.4-7.5c-1.8-1.6-3.5-3.3-5.3-4.9
		c-0.7-0.7-1.5-1-2.5-0.5c-1.5,0.7-5.2,0-6.4-1.8c-1.1-1.6-2-3-1.9-5c0.1-1.7,0.7-3,1.6-4.3c0.4-0.5,0.6-1.4,0.4-2
		c-0.6-2.2-1.3-4.4-2.1-6.7c-1.7-5-3.4-9.9-5-14.9c-0.6-1.7-1.3-3.4-1.5-5.1c-0.2-1.6-1.4-1.4-2.3-1.8c-2.3-1.1-4.2-2.6-4.6-5.2
		c-0.5-3.1,0.5-5.6,3.3-7.3c0.4-0.2,0.8-0.9,0.8-1.4c0.1-7.1,0.1-14.2,0-21.3c0-0.5-0.4-1.2-0.9-1.4c-3.7-1.9-4.6-7.2-1.7-10.4
		c2-2.3,5.5-3,8.2-1.5c0.9,0.5,1.7,1.6,2.3,2.5c0.5,0.7,1,1.1,1.9,1.1c10,0,19.9,0,29.9,0c0.7,0,1.1-0.2,1.5-0.9
		c1.8-3.2,6.2-4.4,9.3-2.6c0.9,0.5,1.6,1.6,2.3,2.5c0.5,0.7,0.9,1,1.8,1c10,0,19.9,0,29.9,0c0.7,0,1.2-0.1,1.6-0.9
		c1.9-3.5,7.4-4.5,10.4-1.9c2.6,2.2,3,7.2,0.7,9.8c-0.2,0.3-0.5,0.6-0.7,0.7c-2.1,0.5-2.2,2-2.2,3.9c0.1,6.3,0.1,12.6,0,18.8
		c0,1.5,0.5,2.3,1.8,2.8c1.9,0.7,3.3,4.7,2.7,6.6c-0.8,2.9-2.7,4.5-5.4,5.3c-1,0.3-1.4,1-1.6,1.8c-0.6,1.9-1.1,3.8-1.7,5.7
		c-1.1,3.2-2.3,6.4-3.3,9.6c-0.8,2.6-1.6,5.2-2.4,7.8C130.2,90.4,129.7,92,129.1,93.6z M68.4,101c1.3,1.3,2.5,2.6,3.7,3.8
		c2.4,2.2,4.8,4.5,7.2,6.6c1.2,1.1,2.5,2,3.7,3.1c2.2,2,4.4,4,6.7,5.9c0.3,0.3,0.9,0.5,1.2,0.4c0.2-0.1,0.4-0.7,0.4-1.1
		c0-14.4,0-28.8,0-43.2c0-1-0.5-1.4-1.4-1.6c-0.8-0.2-1.6-0.2-2.3-0.7c-0.9-0.6-1.3-0.2-1.9,0.5c-1.5,1.9-3.1,3.7-4.6,5.5
		c-2.4,2.8-4.8,5.6-7.2,8.4c-1.6,2-3.2,4-4.9,5.9c-0.8,0.9-1.2,1.4-0.3,2.5C69.4,97.8,69.1,100.3,68.4,101z M96,98.1
		c0,7.2,0,14.3,0,21.5c0,0.4,0.3,0.8,0.4,1.3c0.4-0.2,0.9-0.3,1.2-0.5c2-1.8,4.1-3.6,6-5.4c1.7-1.6,3.3-3.3,5.1-4.8
		c3-2.7,6.1-5.3,9-8.1c0.3-0.3,0.4-0.9,0.5-1.4c0.2-1.6,0.4-3.1,0.5-4.7c0-0.3-0.2-0.7-0.4-1c-1.6-1.9-3.1-3.7-4.7-5.6
		c-2.5-2.9-5-5.8-7.5-8.8c-1.1-1.3-2-2.8-3.3-4c-1.3-1.2-2.2-3.5-5-1.9c-1.7,1-2,0.6-2,2.6C96,84.2,96,91.2,96,98.1z M79.6,63
		c-0.4-0.1-1.1-0.4-1.8-0.5c-3.8-0.4-7.5-0.8-11.3-1.1c-2.8-0.3-5.6-0.4-8.4-0.7c-0.3,0-0.6-0.2-0.9-0.2c-1-0.2-2-0.6-2.8,0.4
		c-1,1.2-1.6,2.3-0.8,3.9c0.8,1.8,1.4,3.6,2.1,5.4c0.5,1.6,1,3.2,1.5,4.8c0.8,2.6,1.5,5.1,2.3,7.7c0.9,2.8,1.8,5.6,2.9,8.4
		c0.7,1.7,2,1.9,3.2,0.5c1.2-1.4,2.4-2.9,3.6-4.3c2.3-2.7,4.5-5.3,6.8-8c1.8-2.2,3.5-4.4,5.3-6.5c0.6-0.7,1.6-1.2,1.7-1.9
		c0.1-0.6-0.8-1.4-1.2-2.1c0,0,0-0.1,0-0.1C81,66.8,80.4,65,79.6,63z M107.6,62.8c-1.1,2.5-2.1,4.7-3,6.9c-0.2,0.5-0.2,1.4,0.2,1.8
		c1.4,1.8,3.1,3.4,4.6,5.1c3,3.6,6,7.2,9,10.8c1.2,1.5,2.4,3,3.6,4.4c0.8,0.9,2.7,0.6,3-0.5c0.5-1.4,0.8-2.8,1.2-4.2
		c0.6-2,1.2-4.1,1.8-6.1c0.8-2.5,1.8-4.8,2.7-7.3c1-3.1,1.7-6.4,2.9-9.4c0.8-1.8-0.3-2.6-1.1-3.7c-0.7-1-1.7-0.4-2.5-0.2
		c-0.2,0-0.3,0.1-0.5,0.1c-4,0.4-8.1,0.8-12.1,1.1C113.9,62.2,110.5,62.5,107.6,62.8z M85.1,51.1c1.9-0.8,3.5-1.5,5.1-2.2
		c0.8-0.3,1.2-0.7,1.2-1.6c0-6.1,0-12.3,0-18.4c0-0.9-0.4-1.3-1.1-1.8c-1-0.7-2.1-1.4-2.6-2.4c-0.5-0.8-1-0.9-1.7-0.9
		c-9.7,0-19.5,0-29.2,0c-0.4,0-0.7,0.1-1.5,0.2C65.5,33.3,75.4,42.3,85.1,51.1z M132.1,24c-0.8-0.1-1.3-0.1-1.8-0.1
		c-9.7,0-19.5,0-29.2,0c-0.9,0-1.4,0.3-1.9,1c-0.6,0.9-1.4,1.6-2.3,2.2c-0.6,0.5-1,0.8-1,1.7c0,6.2,0,12.4,0,18.6
		c0,1,0.4,1.4,1.3,1.6c0.8,0.2,1.6,0.4,2.2,0.8c2.3,1.7,2.3,1.7,4.3-0.3c0.1-0.1,0.1-0.2,0.2-0.2c2.4-2.1,4.7-4.3,7.1-6.4
		c2.7-2.4,5.4-4.9,8.1-7.3c2.5-2.2,4.9-4.5,7.4-6.7C128.3,27.2,130.1,25.7,132.1,24z M51.1,39.3c0,3.5,0,6.9,0,10.4
		c0,0.9,0.2,1.5,1,1.9c1.3,0.7,2.2,1.8,2.8,3.2c0.2,0.4,0.9,0.9,1.4,1c3.2,0.5,6.4,0.6,9.6,1.2c4.3,0.8,8.8,0.8,13.2,1.3
		c1.4,0.2,1.9-0.5,2.1-1.5c0.2-0.9,1.3-1.7,0-2.8c-2.5-2-4.8-4.2-7.1-6.4c-1.7-1.6-3.3-3.2-5-4.7c-2.4-2.1-4.9-4.1-7.3-6.2
		c-3.1-2.8-6.1-5.7-9.1-8.5c-0.3-0.2-0.8-0.3-1.2-0.2c-0.2,0.1-0.3,0.7-0.3,1C51.1,32.3,51.1,35.8,51.1,39.3z M135.7,27.2
		c-0.7,0.4-1,0.6-1.3,0.9c-2,1.8-4.1,3.6-6.1,5.4c-2.2,2-4.4,4-6.6,6c-2.3,2.1-4.6,4.2-6.9,6.4c-1.8,1.6-3.5,3.3-5.3,5
		c-1.2,1.1-2.4,2-3.6,3.1c-0.8,0.7-0.2,3.9,0.8,4.2c0.1,0,0.3,0,0.4,0c3.1-0.3,6.2-0.4,9.3-0.8c2.4-0.3,4.9-0.8,7.3-1.1
		c2.4-0.3,4.8-0.4,7.2-0.7c0.3,0,0.7-0.4,0.9-0.7c0.9-1,1.6-2.3,2.7-3.1c0.9-0.7,1.1-1.3,1.1-2.4c0-6.8,0-13.5,0-20.3
		C135.7,28.7,135.7,28.2,135.7,27.2z"/>
	<path d="M16,74.5c2.9,1.7,4.1,4.2,5.3,6.9c1.2,2.6,1.3,5.2,1.3,7.9c0,9.5-0.1,19,0.1,28.5c0,3.2,0.5,6.4,2.1,9.4
		c1.5,2.8,4,4.1,7.1,4.4c0.3,0,0.7,0.1,1.2,0.1c0,0.6,0.1,1.1,0,1.6c-0.1,0.3-0.5,0.8-0.7,0.8c-2.3-0.3-4.7-0.4-6.8-1.6
		c-1.6-0.9-2.5-2.4-3.4-3.9c-1.5-2.4-2-5-2-7.8c-0.2-11.5-0.3-23-0.5-34.5c-0.1-2.9-0.4-6-2.7-8.2c-0.8-0.8-1.9-1.4-2.8-2.2
		c-0.5-0.4-1.1-1.1-1.1-1.6c0-0.5,0.6-1.4,1.1-1.6c3.1-1.3,4.5-3.9,4.9-6.9c0.5-4.2,0.5-8.5,0.6-12.8c0.1-7.7-0.1-15.4,0.1-23.1
		c0.1-2.5,0.7-5.1,1.5-7.5c0.7-2.2,2.2-4.1,4.1-5.8c2.3-2.1,4.9-2,7.7-1.9c0,0.8,0,1.5,0,2.3c-1.8,0.6-3.7,1-5.4,1.7
		c-2.2,0.9-3.3,2.7-4,5.1c-0.9,3.3-1,6.7-1,10.1c0,9.6,0,19.1-0.1,28.7c0,1.6,0,3.4-0.7,4.9c-1,2.4-2.2,4.9-4.7,6.3
		C16.7,73.9,16.5,74.2,16,74.5z"/>
	<path d="M154.8,132.7c2.2,0.2,4.3-0.1,5.9-1.5c1.7-1.4,3.2-3.2,3.7-5.4c0.9-3.4,1.1-6.8,1.1-10.3c0-8.6,0-17.2,0-25.8
		c0-3.4,0.3-6.8,2.2-9.7c1.1-1.6,2.6-2.9,4-4.5c-0.5-0.3-1-0.9-1.7-1.2c-1.8-0.8-2.7-2.4-3.4-4.1c-1.1-2.7-1.2-5.6-1.2-8.5
		c0-9.9,0-19.8,0-29.7c0-3.1-0.4-6.2-1.8-8.9c-0.9-1.8-2.6-3.1-4.6-3.7c-1.4-0.4-2.8-0.7-4.2-1.1c0-0.8,0-1.5,0-2.3
		c2.7-0.7,4.9,0.3,7.1,1.5c3.2,1.8,4.5,4.8,5.2,8.1c1,4.4,1,8.9,1,13.4c0,8.3,0,16.5,0.1,24.8c0,1.7,0.4,3.5,1,5.1
		c0.8,2.1,2.1,3.9,4.3,4.9c0.7,0.3,1,0.9,0.9,1.7c-0.1,0.7,0.1,1.3-0.9,1.8c-2,1.1-3.7,2.6-4.5,4.8c-0.5,1.5-0.8,3.1-0.8,4.7
		c-0.1,8.8,0,17.7-0.1,26.5c0,3.5-0.2,7.1-0.6,10.6c-0.4,3.1-1,6.3-3.5,8.5c-1.6,1.4-3.5,2.2-5.5,2.5c-0.6,0.1-1.2,0-1.7,0.2
		c-1.8,0.5-2,0.3-2-1.4C154.7,133.4,154.8,133.1,154.8,132.7z"/>
	<path fill="#FFFFFF" d="M68.4,101c0.7-0.6,1-3.2,0.4-4c-0.9-1.1-0.5-1.6,0.3-2.5c1.7-1.9,3.2-4,4.9-5.9c2.4-2.8,4.8-5.6,7.2-8.4
		c1.6-1.8,3.1-3.6,4.6-5.5c0.6-0.7,1-1.1,1.9-0.5c0.6,0.4,1.5,0.5,2.3,0.7c0.9,0.2,1.4,0.6,1.4,1.6c0,14.4,0,28.8,0,43.2
		c0,0.4-0.2,1.1-0.4,1.1c-0.4,0.1-0.9-0.1-1.2-0.4c-2.2-1.9-4.4-4-6.7-5.9c-1.2-1.1-2.5-2-3.7-3.1c-2.4-2.2-4.9-4.4-7.2-6.6
		C70.9,103.6,69.7,102.3,68.4,101z"/>
	<path fill="#FFFFFF" d="M96,98.1c0-6.9,0-13.9,0-20.8c0-2,0.2-1.6,2-2.6c2.8-1.6,3.7,0.6,5,1.9c1.2,1.2,2.2,2.7,3.3,4
		c2.5,2.9,5,5.9,7.5,8.8c1.6,1.9,3.2,3.7,4.7,5.6c0.2,0.3,0.5,0.7,0.4,1c-0.1,1.6-0.3,3.1-0.5,4.7c-0.1,0.5-0.2,1.1-0.5,1.4
		c-3,2.7-6,5.4-9,8.1c-1.7,1.6-3.4,3.2-5.1,4.8c-2,1.8-4,3.6-6,5.4c-0.3,0.3-0.8,0.4-1.2,0.5c-0.1-0.4-0.4-0.8-0.4-1.3
		C96,112.5,96,105.3,96,98.1z"/>
	<path fill="#FFFFFF" d="M79.6,63c0.7,2,1.4,3.8,2.1,5.6c0,0,0,0.1,0,0.1c0.4,0.7,1.3,1.5,1.2,2.1c-0.1,0.7-1.1,1.2-1.7,1.9
		c-1.8,2.2-3.5,4.4-5.3,6.5c-2.2,2.7-4.5,5.3-6.8,8c-1.2,1.4-2.4,2.9-3.6,4.3c-1.2,1.4-2.6,1.3-3.2-0.5c-1-2.8-2-5.6-2.9-8.4
		c-0.8-2.5-1.6-5.1-2.3-7.7c-0.5-1.6-1-3.2-1.5-4.8c-0.6-1.8-1.2-3.7-2.1-5.4c-0.8-1.6-0.2-2.8,0.8-3.9c0.9-1,1.9-0.5,2.8-0.4
		c0.3,0.1,0.6,0.2,0.9,0.2c2.8,0.2,5.6,0.4,8.4,0.7c3.8,0.3,7.5,0.7,11.3,1.1C78.5,62.6,79.3,62.9,79.6,63z"/>
	<path fill="#FFFFFF" d="M107.6,62.8c2.9-0.3,6.3-0.6,9.8-0.9c4-0.4,8.1-0.8,12.1-1.1c0.2,0,0.3-0.1,0.5-0.1
		c0.9-0.2,1.8-0.8,2.5,0.2c0.8,1.1,1.9,1.8,1.1,3.7c-1.3,3-1.9,6.3-2.9,9.4c-0.8,2.5-1.8,4.9-2.7,7.3c-0.7,2-1.2,4-1.8,6.1
		c-0.4,1.4-0.7,2.8-1.2,4.2c-0.4,1.1-2.2,1.4-3,0.5c-1.3-1.4-2.4-2.9-3.6-4.4c-3-3.6-6-7.3-9-10.8c-1.5-1.7-3.1-3.3-4.6-5.1
		c-0.3-0.4-0.4-1.3-0.2-1.8C105.5,67.5,106.5,65.3,107.6,62.8z"/>
	<path fill="#FFFFFF" d="M85.1,51.1C75.4,42.3,65.5,33.3,55.2,24c0.8-0.1,1.1-0.2,1.5-0.2c9.7,0,19.5,0,29.2,0
		c0.7,0,1.2,0.1,1.7,0.9c0.6,1,1.7,1.7,2.6,2.4c0.7,0.5,1.1,0.9,1.1,1.8c0,6.1,0,12.3,0,18.4c0,0.9-0.4,1.3-1.2,1.6
		C88.6,49.6,87,50.3,85.1,51.1z"/>
	<path fill="#FFFFFF" d="M132.1,24c-2.1,1.8-3.8,3.3-5.6,4.8c-2.5,2.2-4.9,4.5-7.4,6.7c-2.7,2.5-5.4,4.9-8.1,7.3
		c-2.4,2.1-4.7,4.3-7.1,6.4c-0.1,0.1-0.1,0.2-0.2,0.2c-2,2-2,2-4.3,0.3c-0.6-0.4-1.4-0.6-2.2-0.8c-0.9-0.2-1.3-0.6-1.3-1.6
		c0-6.2,0-12.4,0-18.6c0-0.8,0.4-1.2,1-1.7c0.8-0.6,1.7-1.4,2.3-2.2c0.5-0.8,1-1.1,1.9-1c9.7,0,19.5,0,29.2,0
		C130.8,23.9,131.3,23.9,132.1,24z"/>
	<path fill="#FFFFFF" d="M51.1,39.3c0-3.5,0-7,0-10.5c0-0.4,0.1-0.9,0.3-1c0.3-0.1,0.9,0,1.2,0.2c3.1,2.8,6,5.7,9.1,8.5
		c2.4,2.1,4.9,4.1,7.3,6.2c1.7,1.5,3.3,3.2,5,4.7c2.3,2.2,4.7,4.4,7.1,6.4c1.3,1.1,0.2,1.9,0,2.8c-0.2,1-0.7,1.7-2.1,1.5
		c-4.4-0.5-8.8-0.5-13.2-1.3c-3.2-0.6-6.4-0.7-9.6-1.2c-0.5-0.1-1.2-0.5-1.4-1c-0.6-1.4-1.5-2.5-2.8-3.2c-0.9-0.5-1-1.1-1-1.9
		C51.1,46.2,51.1,42.7,51.1,39.3z"/>
	<path fill="#FFFFFF" d="M135.7,27.2c0,0.9,0,1.4,0,1.9c0,6.8,0,13.5,0,20.3c0,1-0.2,1.7-1.1,2.4c-1.1,0.8-1.8,2.1-2.7,3.1
		c-0.3,0.3-0.6,0.7-0.9,0.7c-2.4,0.3-4.8,0.4-7.2,0.7c-2.4,0.3-4.9,0.8-7.3,1.1c-3.1,0.3-6.2,0.5-9.3,0.8c-0.1,0-0.3,0-0.4,0
		c-1-0.4-1.6-3.6-0.8-4.2c1.2-1,2.4-2,3.6-3.1c1.8-1.6,3.5-3.3,5.3-5c2.3-2.1,4.6-4.3,6.9-6.4c2.2-2,4.4-4,6.6-6
		c2-1.8,4-3.6,6.1-5.4C134.7,27.9,135,27.7,135.7,27.2z"/>
</g>
</svg>
