<?xml version="1.0" encoding="utf-8"?>
<!-- Generator: Adobe Illustrator 27.3.1, SVG Export Plug-In . SVG Version: 6.00 Build 0)  -->
<svg version="1.1" id="Layer_1" xmlns="http://www.w3.org/2000/svg" xmlns:xlink="http://www.w3.org/1999/xlink" x="0px" y="0px"
	 viewBox="0 0 300 300" enable-background="new 0 0 300 300" xml:space="preserve">
<path fill="#11154C" d="M229.5,193.5c4.1,2.8,6.1,7.5,5.8,12.6c-0.6,9.7-10.3,17.2-19.7,13.8c-1.3-0.5-3.6,0.1-4.7,1
	c-8.2,7.2-16.1,14.6-24.2,21.9c-5.1,4.7-10.2,9.4-15.4,14c-1.3,1.1-2.9,1.9-4,3.2c-1.6,1.9-3.8,3.2-2.6,6.8
	c1.4,4.4-1.9,12.6-6.8,15.2c-4.1,2.2-12.8,2.4-17.3-0.9c-4.9-3.7-6.4-8.6-5.7-14.2c0.4-3.3-0.8-5.4-3-7.3c-4-3.5-8.2-6.9-12.1-10.4
	c-6.3-5.6-12.5-11.2-18.7-16.9c-4-3.6-7.9-7.3-11.8-11c-1.7-1.6-3.3-2.2-5.6-1.1c-3.5,1.6-11.7-0.1-14.4-4.1
	c-2.4-3.5-4.5-6.7-4.3-11.2c0.1-3.8,1.5-6.8,3.6-9.7c0.8-1.2,1.3-3.2,0.9-4.5c-1.3-5-3-10-4.6-14.9c-3.7-11.1-7.5-22.2-11.2-33.3
	c-1.3-3.8-3-7.6-3.4-11.5c-0.4-3.6-3.2-3.1-5-4c-5.2-2.4-9.3-5.9-10.2-11.7c-1.1-6.9,1.2-12.6,7.5-16.3c0.9-0.6,1.8-2.1,1.9-3.2
	c0.1-15.9,0.1-31.8,0-47.7c0-1.1-1-2.7-1.9-3.2c-8.4-4.2-10.2-16-3.9-23.3c4.5-5.1,12.4-6.8,18.4-3.3c2.1,1.2,3.7,3.5,5.2,5.6
	c1.1,1.6,2.2,2.4,4.3,2.4c22.3-0.1,44.6,0,67,0c1.6,0,2.5-0.4,3.4-2c4-7.1,13.8-9.9,20.9-5.9c2.1,1.2,3.7,3.6,5.2,5.7
	c1.1,1.5,2,2.3,4,2.3c22.3-0.1,44.6,0,67,0c1.6,0,2.6-0.3,3.7-2.1c4.3-7.9,16.5-10,23.2-4.4c5.9,4.9,6.7,16.1,1.6,21.9
	c-0.5,0.6-1,1.4-1.7,1.6c-4.8,1.2-5,4.6-4.9,8.6c0.2,14.1,0.2,28.2,0,42.2c-0.1,3.3,1,5.1,4,6.3c4.4,1.7,7.3,10.5,6.1,14.9
	c-1.8,6.4-6.1,10.1-12.1,12c-2.3,0.7-3,2.3-3.6,4c-1.4,4.2-2.4,8.5-3.8,12.7c-2.4,7.2-5.1,14.3-7.5,21.5c-1.9,5.8-3.5,11.7-5.3,17.5
	C231.9,186.4,230.7,189.8,229.5,193.5z M93.4,210c2.9,2.9,5.5,5.8,8.3,8.4c5.3,5,10.8,10,16.2,14.9c2.7,2.4,5.6,4.6,8.2,6.9
	c5,4.4,9.9,8.9,14.9,13.3c0.7,0.6,1.9,1.1,2.7,0.9c0.5-0.1,1-1.6,1-2.5c0-32.3,0-64.6,0.1-96.9c0-2.3-1.2-3.2-3.1-3.6
	c-1.7-0.4-3.7-0.5-5.1-1.5c-2.1-1.4-3-0.5-4.2,1c-3.4,4.2-6.9,8.3-10.4,12.4c-5.4,6.3-10.8,12.6-16.2,18.9c-3.7,4.4-7.1,9-10.9,13.3
	c-1.7,1.9-2.8,3.2-0.7,5.5C95.7,202.8,94.9,208.6,93.4,210z M155.2,203.6c0,16.1,0,32.2,0,48.2c0,0.9,0.6,1.9,0.9,2.8
	c0.9-0.4,2.1-0.6,2.8-1.2c4.6-4,9.1-8.1,13.6-12.2c3.8-3.6,7.5-7.3,11.4-10.8c6.7-6.1,13.6-12,20.3-18.1c0.7-0.7,1-2,1.1-3.1
	c0.5-3.5,0.8-7,1-10.6c0-0.7-0.5-1.6-1-2.3c-3.5-4.2-7-8.4-10.6-12.5c-5.6-6.6-11.2-13.1-16.7-19.7c-2.5-3-4.5-6.4-7.3-9
	c-3-2.8-5-7.8-11.2-4.2c-3.8,2.3-4.4,1.4-4.4,5.8C155.2,172.5,155.2,188,155.2,203.6z M118.5,124.9c-0.9-0.2-2.5-0.9-4.1-1
	c-8.4-0.9-16.9-1.7-25.3-2.5c-6.3-0.6-12.6-1-18.9-1.5c-0.7-0.1-1.3-0.4-2-0.5c-2.2-0.4-4.4-1.4-6.4,0.8c-2.3,2.6-3.6,5.1-1.9,8.7
	c1.8,3.9,3.2,8.1,4.6,12.2c1.2,3.5,2.3,7.1,3.4,10.7c1.8,5.7,3.4,11.5,5.2,17.2c2.1,6.3,4.1,12.6,6.5,18.8c1.5,3.9,4.5,4.3,7.2,1.1
	c2.8-3.2,5.4-6.5,8.2-9.7c5.1-6,10.2-11.9,15.2-17.9c4-4.8,7.9-9.8,12-14.6c1.2-1.5,3.5-2.7,3.7-4.3c0.2-1.4-1.7-3.1-2.7-4.7
	c-0.1-0.1-0.1-0.2-0.1-0.3C121.7,133.4,120.2,129.3,118.5,124.9z M181.2,124.5c-2.5,5.7-4.7,10.5-6.6,15.5c-0.5,1.2-0.3,3.2,0.4,4.1
	c3.2,4,6.9,7.5,10.2,11.4c6.8,8,13.4,16.2,20.1,24.3c2.7,3.3,5.3,6.7,8.1,9.8c1.9,2.1,6,1.4,6.8-1.1c1-3.1,1.8-6.2,2.7-9.3
	c1.3-4.5,2.6-9.1,4.1-13.6c1.9-5.5,4.1-10.9,5.9-16.4c2.3-7,3.7-14.3,6.6-21.1c1.7-4.1-0.7-5.8-2.5-8.2c-1.6-2.2-3.7-0.9-5.7-0.4
	c-0.4,0.1-0.8,0.2-1.2,0.3c-9,0.9-18.1,1.7-27.1,2.6C195.4,123.1,187.8,123.8,181.2,124.5z M130.7,98.3c4.3-1.8,7.8-3.4,11.5-4.8
	c1.8-0.7,2.7-1.6,2.7-3.7c-0.1-13.8-0.1-27.6,0-41.3c0-2-1-2.9-2.5-3.9c-2.2-1.5-4.6-3.1-5.9-5.3c-1.1-1.8-2.1-2-3.8-2
	c-21.8,0-43.6,0-65.5,0c-0.8,0-1.7,0.2-3.4,0.3C86.8,58.3,109,78.6,130.7,98.3z M236.1,37.5c-1.9-0.1-2.9-0.3-3.9-0.3
	c-21.8,0-43.6,0-65.4-0.1c-2,0-3.1,0.7-4.3,2.3c-1.3,1.9-3.2,3.6-5.1,5c-1.4,1-2.2,1.9-2.2,3.7c0.1,13.9,0.1,27.7,0,41.6
	c0,2.3,0.9,3.2,3,3.6c1.7,0.4,3.6,0.8,4.9,1.8c5.2,3.8,5.1,3.9,9.6-0.6c0.1-0.1,0.2-0.4,0.3-0.5c5.3-4.8,10.6-9.6,15.9-14.4
	c6.1-5.5,12.2-11,18.2-16.5c5.5-5,10.9-10.1,16.5-15C227.5,44.8,231.5,41.4,236.1,37.5z M54.5,71.7c0,7.7,0,15.5,0,23.2
	c0,1.9,0.4,3.3,2.3,4.3c2.9,1.5,5,3.9,6.2,7.1c0.4,1,2,1.9,3.1,2.1c7.1,1.2,14.3,1.4,21.5,2.8c9.7,1.8,19.7,1.8,29.5,3
	c3,0.3,4.3-1.1,4.7-3.4c0.3-2,3-3.9,0-6.3c-5.5-4.5-10.7-9.5-15.9-14.3c-3.8-3.5-7.3-7.2-11.2-10.6c-5.4-4.7-11.1-9.1-16.4-14
	c-6.9-6.2-13.6-12.8-20.4-19.1c-0.6-0.5-1.8-0.8-2.6-0.5c-0.5,0.1-0.8,1.5-0.8,2.3C54.5,56.1,54.5,63.9,54.5,71.7z M244.2,44.8
	c-1.5,1-2.3,1.4-3,2c-4.5,4-9.1,8.1-13.6,12.1c-4.9,4.5-9.8,8.9-14.7,13.4c-5.2,4.7-10.4,9.5-15.5,14.3c-4,3.7-7.8,7.5-11.8,11.1
	c-2.6,2.4-5.4,4.5-8,6.8c-1.7,1.6-0.4,8.7,1.8,9.5c0.3,0.1,0.6,0.1,0.9,0.1c7-0.6,14-1,20.9-1.8c5.5-0.6,10.9-1.8,16.4-2.5
	c5.4-0.6,10.8-0.9,16.1-1.5c0.8-0.1,1.5-0.9,2.1-1.6c2-2.3,3.6-5.1,5.9-7c2-1.6,2.6-3,2.5-5.3c-0.1-15.2,0-30.4,0-45.5
	C244.2,47.9,244.2,46.9,244.2,44.8z"/>
</svg>
